<?xml version="1.0" standalone="no"?>
<!DOCTYPE svg PUBLIC "-//W3C//DTD SVG 20010904//EN"
 "http://www.w3.org/TR/2001/REC-SVG-20010904/DTD/svg10.dtd">
<svg version="1.0" xmlns="http://www.w3.org/2000/svg"
 width="1024.000000pt" height="1024.000000pt" viewBox="0 0 1024.000000 1024.000000"
 preserveAspectRatio="xMidYMid meet">
<metadata>
Created by potrace 1.14, written by Peter Selinger 2001-2017
</metadata>
<g transform="translate(0.000000,1024.000000) scale(0.100000,-0.100000)"
fill="#000000" stroke="none">
<path d="M4957 10017 c-66 -69 -131 -170 -317 -497 -195 -342 -231 -396 -293
-438 -26 -19 -54 -51 -72 -83 -16 -30 -39 -69 -52 -88 -32 -47 -30 -96 7 -151
25 -38 30 -55 30 -108 0 -37 -6 -72 -14 -85 -29 -46 -30 -85 -2 -128 29 -43
48 -122 66 -269 17 -143 39 -394 35 -398 -2 -2 -50 -12 -107 -21 -173 -30
-189 -48 -212 -226 -11 -95 -18 -118 -47 -164 -43 -69 -45 -118 -6 -159 26
-27 28 -38 38 -153 12 -133 8 -267 -8 -278 -23 -15 -63 -88 -63 -116 0 -38 33
-92 65 -107 27 -12 28 -14 44 -123 23 -153 51 -205 113 -205 16 0 28 -5 28
-11 0 -18 -82 -167 -101 -185 -19 -17 -175 -37 -229 -29 -109 17 -100 12 -100
58 0 46 -27 99 -60 117 -50 27 -439 39 -649 20 -145 -13 -194 -48 -215 -151
-6 -26 -8 -27 -108 -34 -193 -12 -248 -43 -270 -151 -10 -44 -13 -320 -13
-1129 0 -984 2 -1073 17 -1106 10 -20 25 -39 34 -43 9 -3 363 -9 788 -12 424
-4 774 -9 778 -13 4 -4 2 -70 -6 -146 -8 -77 -17 -221 -20 -320 -4 -99 -11
-245 -16 -325 -5 -80 -14 -271 -20 -425 -19 -501 -29 -754 -47 -1098 l-17
-339 -28 -35 c-49 -62 -36 -116 37 -159 25 -14 82 -67 127 -117 156 -175 282
-261 509 -351 132 -52 231 -69 399 -69 179 0 275 16 404 68 160 64 384 211
556 364 141 125 150 134 172 169 22 36 22 7 -2 372 -6 80 -15 258 -20 395 -12
308 -26 640 -45 1065 -8 179 -17 399 -21 490 -3 91 -12 232 -18 313 -12 145
-12 148 9 152 11 3 391 6 845 8 606 3 835 7 863 16 78 25 72 -72 72 1201 0
1077 -1 1137 -18 1163 -10 16 -30 33 -45 39 -18 7 -290 13 -832 19 -443 4
-833 11 -868 14 -42 5 -68 13 -80 25 -17 19 -102 171 -102 184 0 3 12 6 26 6
15 0 37 12 53 28 25 25 29 39 41 142 6 63 14 120 17 127 3 7 21 21 40 30 49
23 73 66 73 132 0 50 -3 57 -40 92 l-40 38 0 178 c0 175 0 178 23 188 54 24
77 156 37 208 -11 14 -29 29 -40 32 -18 6 -20 16 -20 98 0 191 -27 218 -241
237 -55 4 -102 10 -103 12 -3 3 8 106 39 373 8 72 17 156 21 187 5 50 12 62
50 101 38 39 44 51 44 86 0 44 -18 89 -44 110 -10 9 -16 30 -16 59 0 38 6 51
40 88 31 34 40 51 40 79 0 42 -18 81 -54 114 -14 13 -28 39 -32 57 -7 39 -35
67 -89 88 -46 19 -30 -6 -277 430 -276 487 -297 516 -367 516 -24 0 -42 -10
-74 -43z m166 -289 c46 -79 119 -206 162 -283 223 -398 240 -423 303 -455 31
-16 42 -27 42 -44 0 -13 9 -35 21 -50 l21 -26 -21 -43 c-17 -35 -21 -62 -21
-138 1 -54 6 -107 14 -124 12 -27 10 -33 -11 -61 -25 -34 -40 -113 -68 -369
-8 -77 -20 -174 -25 -215 -13 -105 -12 -201 3 -230 22 -45 93 -71 214 -78
l108 -7 5 -120 c4 -95 9 -126 24 -147 10 -16 23 -28 29 -28 6 0 0 -11 -12 -24
-34 -36 -41 -83 -41 -296 0 -206 6 -249 42 -287 21 -23 21 -23 2 -38 -10 -8
-22 -15 -26 -15 -18 0 -43 -72 -53 -150 -9 -73 -13 -85 -31 -88 -11 -2 -30 8
-44 23 l-23 25 -729 0 -728 0 -27 -30 c-14 -16 -32 -30 -39 -30 -7 0 -16 30
-24 81 -14 99 -24 126 -56 160 l-25 26 24 37 c33 47 41 123 32 289 -7 134 -27
250 -47 274 -8 10 -4 25 16 63 21 39 29 70 36 151 4 56 12 105 17 110 5 5 52
13 106 19 128 15 167 29 191 70 18 30 18 40 8 159 -7 69 -17 176 -22 236 -14
149 -47 336 -69 387 -16 37 -16 46 -3 82 19 54 8 203 -18 263 l-19 42 31 56
c17 31 42 62 57 70 42 21 106 100 157 190 6 11 81 142 166 290 170 296 244
415 258 415 5 0 47 -64 93 -142z m554 -3469 c2 -29 31 -92 96 -209 69 -125 99
-154 173 -170 64 -13 324 -20 1079 -28 l620 -7 8 -105 c10 -137 5 -2006 -6
-2017 -5 -4 -392 -10 -860 -13 -910 -5 -895 -5 -936 -53 -12 -16 -82 -17 -821
-17 -719 0 -809 2 -814 15 -3 9 -23 23 -43 33 -34 15 -115 17 -800 22 -419 3
-765 9 -770 13 -11 11 -16 1565 -6 1877 l8 245 131 11 c188 17 213 31 239 134
l11 45 55 7 c69 8 517 10 547 2 16 -5 22 -14 22 -35 0 -55 30 -97 89 -127 54
-26 62 -27 221 -27 194 0 223 7 279 72 60 67 141 235 148 306 l6 57 661 0 661
0 2 -31z m174 -2774 c8 -32 33 -509 49 -935 5 -140 14 -349 20 -465 5 -115 15
-325 20 -465 6 -140 17 -374 25 -520 l15 -265 -48 -45 c-151 -142 -243 -214
-372 -294 -199 -123 -297 -161 -454 -177 -198 -19 -347 2 -511 71 -191 81
-288 150 -404 283 -43 51 -90 102 -104 113 -24 22 -25 23 -12 78 7 31 18 184
24 339 6 155 13 305 16 332 3 28 12 237 20 465 14 388 29 712 55 1215 6 116
16 231 21 258 l11 47 811 -2 811 -3 7 -30z"/>
<path d="M3265 5700 c-252 -30 -429 -148 -501 -335 -15 -39 -19 -74 -18 -165
0 -109 2 -118 33 -183 83 -171 263 -295 562 -387 246 -77 337 -160 306 -282
-12 -49 -71 -112 -134 -145 -96 -50 -260 -54 -359 -9 -50 23 -147 107 -156
135 -3 11 -32 3 -127 -32 -68 -25 -125 -48 -128 -51 -3 -2 7 -31 21 -62 40
-87 158 -198 268 -253 114 -56 169 -70 308 -77 97 -5 127 -2 195 15 122 32
199 75 286 161 108 107 147 205 136 344 -6 89 -31 155 -92 246 -59 89 -142
157 -265 217 -111 55 -109 54 -225 89 -185 56 -292 121 -316 191 -28 87 32
199 133 244 47 20 69 23 188 24 143 0 129 3 248 -59 46 -25 68 -16 145 55 58
52 67 65 67 95 0 43 -53 97 -147 150 -114 65 -273 92 -428 74z"/>
<path d="M6945 5704 c-220 -33 -390 -118 -545 -274 -169 -169 -260 -388 -260
-631 0 -385 223 -714 592 -872 138 -59 196 -71 348 -71 156 -1 253 16 287 50
21 21 23 32 23 121 -1 66 -5 106 -15 123 -8 14 -14 37 -15 53 0 15 -1 27 -3
27 -2 0 -32 -11 -67 -25 -150 -59 -355 -56 -490 8 -240 112 -366 329 -347 598
21 287 232 520 522 574 100 19 166 15 297 -17 116 -29 118 -27 117 106 0 83
-4 109 -22 145 -21 43 -25 46 -92 63 -68 17 -270 31 -330 22z"/>
<path d="M4855 5665 c-33 -7 -89 -24 -125 -38 -84 -32 -240 -124 -240 -142 0
-7 15 -19 34 -25 19 -6 37 -17 39 -24 3 -8 27 -21 54 -31 163 -58 294 -114
267 -115 -13 0 -71 18 -99 31 -11 5 -33 13 -50 18 -16 5 -55 19 -85 31 -130
50 -209 71 -229 61 -19 -11 -87 -89 -127 -146 -104 -149 -168 -395 -149 -570
6 -63 8 -67 30 -63 41 8 53 -8 27 -35 -35 -37 -27 -97 33 -232 62 -141 212
-304 360 -392 49 -29 97 -53 107 -53 32 0 41 39 29 118 -13 85 -13 92 -2 92 4
0 11 -28 15 -62 14 -138 31 -164 133 -211 42 -19 66 -21 198 -22 170 0 244 16
390 84 96 46 126 69 130 102 2 13 5 31 6 39 3 10 -20 22 -76 42 -87 31 -222
82 -270 102 -16 8 -46 20 -65 28 -91 38 -236 110 -359 176 -74 39 -138 72
-142 72 -4 0 -9 -6 -12 -12 -4 -13 -16 130 -22 275 -2 44 -9 85 -15 91 -5 5
-10 30 -10 56 l0 45 88 56 c48 31 119 75 158 98 81 47 99 64 108 104 4 18 13
27 26 27 22 0 289 -134 340 -170 41 -29 77 -21 82 18 6 53 28 -206 28 -336 0
-73 3 -132 6 -132 3 0 15 5 26 11 15 8 24 8 34 -3 11 -11 -1 -23 -74 -75 -48
-34 -142 -95 -209 -135 -68 -40 -123 -75 -123 -78 0 -17 145 -97 238 -131 59
-22 141 -54 182 -71 43 -18 93 -31 118 -31 36 0 49 5 83 39 77 74 152 205 195
339 20 62 27 109 31 207 4 80 2 132 -5 140 -14 18 -24 69 -26 136 -2 46 -13
79 -58 172 -106 218 -234 349 -440 451 -37 18 -69 31 -72 28 -5 -5 18 -168 33
-229 6 -25 10 -63 10 -85 l-2 -40 -7 40 c-4 22 -14 81 -23 131 -17 98 -55 186
-91 209 -52 34 -313 46 -431 20z m-148 -1382 c-3 -10 -5 -4 -5 12 0 17 2 24 5
18 2 -7 2 -21 0 -30z m10 -95 c-3 -7 -5 -2 -5 12 0 14 2 19 5 13 2 -7 2 -19 0
-25z"/>
</g>
</svg>
